<svg xmlns="http://www.w3.org/2000/svg" width="22" height="22" viewBox="0 0 22 22">
  <path fill="#171616" d="M11,0 C8.08281917,0 5.2843495,1.1592826 3.22222959,3.22222959 C1.15925828,5.28425219 0,8.08257591 0,11 C0,13.9174241 1.1592826,16.7156505 3.22222959,18.7777704 C5.28425219,20.8407417 8.08257591,22 11,22 C13.9174241,22 16.7156505,20.8407174 18.7777704,18.7777704 C20.8407417,16.7157478 22,13.9174241 22,11 C21.9942985,8.08476525 20.8331033,5.28994449 18.7712024,3.22904089 C16.7101285,1.16701829 13.915478,0.00583825383 11.0002433,0.000243260576 L11,0 Z M15.6903072,11.7601893 L11.7601893,11.7601893 L10.2398107,11.7601893 L6.30969283,11.7601893 C5.88967912,11.7601893 5.54950353,11.4200137 5.54950353,11 C5.54950353,10.5799863 5.88967912,10.2398107 6.30969283,10.2398107 L10.2398107,10.2398107 L11.7601893,10.2398107 L15.6903072,10.2398107 C16.1103209,10.2398107 16.4504965,10.5799863 16.4504965,11 C16.4504965,11.4200137 16.1103209,11.7601893 15.6903072,11.7601893 Z"/>
</svg>
