<svg xmlns="http://www.w3.org/2000/svg" width="14" height="15" viewBox="0 0 14 15">
  <path fill="#171616" fill-rule="evenodd" d="M13.0837806,2.25 L0.76428074,2.25 C0.342136266,2.25 0,2.5914062 0,3.01264989 L0,15.3058619 C0,15.7270538 0.342136266,16.0685636 0.76428074,16.0685636 L7.39671212,16.0685636 L7.39671212,10.7172777 L5.59201336,10.7172777 L5.59201336,8.63176935 L7.39671212,8.63176935 L7.39671212,7.09378463 C7.39671212,5.30898715 8.48911991,4.33711335 10.0847181,4.33711335 C10.8490507,4.33711335 11.5059274,4.39385906 11.6973349,4.41922894 L11.6973349,6.28448521 L10.5907103,6.28500297 C9.72296892,6.28500297 9.55491018,6.69646112 9.55491018,7.30026445 L9.55491018,8.63176935 L11.624487,8.63176935 L11.355043,10.7172777 L9.55491018,10.7172777 L9.55491018,16.0685636 L13.0837806,16.0685636 C13.5058732,16.0685636 13.8480614,15.7270538 13.8480614,15.3058619 L13.8480614,3.01264989 C13.8480614,2.5914062 13.5058732,2.25 13.0837806,2.25" transform="translate(0 -2)"/>
</svg>
