<svg xmlns="http://www.w3.org/2000/svg" width="19" height="18" viewBox="0 0 19 18">
  <path fill="#171616" d="M126.749982,1.62165445 C129.153097,1.62165445 129.437723,1.63080019 130.386737,1.67409957 C131.264228,1.71414792 131.740771,1.8607656 132.057942,1.98398304 C132.478003,2.14724884 132.777848,2.34231037 133.092769,2.65723115 C133.40769,2.97215193 133.602751,3.27199653 133.765981,3.69205761 C133.889234,4.0092291 134.035852,4.48577229 134.0759,5.36322769 C134.1192,6.31227709 134.128346,6.5969026 134.128346,9.00001786 C134.128346,11.4031331 134.1192,11.6877587 134.0759,12.6367723 C134.035852,13.5142635 133.889234,13.9908066 133.765981,14.3079781 C133.602751,14.7280392 133.40769,15.0278838 133.092769,15.3428046 C132.777848,15.6577253 132.478003,15.8527869 132.057942,16.0160169 C131.740771,16.1392701 131.264228,16.2858878 130.386737,16.3259362 C129.437866,16.3692355 129.15324,16.3783813 126.749982,16.3783813 C124.346724,16.3783813 124.062098,16.3692355 123.113228,16.3259362 C122.235737,16.2858878 121.759193,16.1392701 121.442058,16.0160169 C121.021961,15.8527869 120.722116,15.6577253 120.407195,15.3428046 C120.092275,15.0278838 119.897213,14.7280392 119.733983,14.3079781 C119.61073,13.9908066 119.464112,13.5142635 119.424064,12.636808 C119.380764,11.6877587 119.371619,11.4031331 119.371619,9.00001786 C119.371619,6.5969026 119.380764,6.31227709 119.424064,5.36326341 C119.464112,4.48577229 119.61073,4.0092291 119.733983,3.69205761 C119.897213,3.27199653 120.092275,2.97215193 120.407195,2.65723115 C120.722116,2.34231037 121.021961,2.14724884 121.442058,1.98398304 C121.759193,1.8607656 122.235737,1.71414792 123.113192,1.67409957 C124.062241,1.63080019 124.346867,1.62165445 126.749982,1.62165445 M126.749982,0 C124.305711,0 123.999257,0.0103604113 123.039312,0.0541599433 C122.081331,0.097888024 121.427124,0.250007443 120.854622,0.472506207 C120.262793,0.702507338 119.760884,1.01024728 119.260548,1.5105837 C118.760212,2.01092011 118.452472,2.51282845 118.22247,3.10465801 C117.999972,3.67716006 117.847852,4.33136644 117.804124,5.28934724 C117.760325,6.24925721 117.75,6.55574676 117.75,9.00001786 C117.75,11.444289 117.760325,11.7507785 117.804124,12.7106885 C117.847852,13.6686693 117.999972,14.3228757 118.22247,14.8953777 C118.452472,15.4871715 118.760212,15.9891156 119.260548,16.489452 C119.760884,16.9897885 120.262793,17.2975284 120.854622,17.5275295 C121.427124,17.7500283 122.081331,17.9021477 123.039312,17.9458758 C123.999257,17.9896753 124.305711,18 126.749982,18 C129.194253,18 129.500743,17.9896753 130.460653,17.9458758 C131.418634,17.9021477 132.07284,17.7500283 132.645342,17.5275295 C133.237172,17.2975284 133.73908,16.9897885 134.239416,16.489452 C134.739753,15.9891156 135.047493,15.4872072 135.277494,14.8953777 C135.499993,14.3228757 135.652112,13.6686693 135.69584,12.7106885 C135.73964,11.7507785 135.75,11.444289 135.75,9.00001786 C135.75,6.55574676 135.73964,6.24925721 135.69584,5.28934724 C135.652112,4.33136644 135.499993,3.67716006 135.277494,3.10465801 C135.047493,2.51282845 134.739753,2.01092011 134.239416,1.5105837 C133.73908,1.01024728 133.237172,0.702507338 132.645342,0.472506207 C132.07284,0.250007443 131.418634,0.097888024 130.460653,0.0541599433 C129.500743,0.0103604113 129.194253,0 126.749982,0 Z M126.749982,4.37838128 C124.197534,4.37838128 122.128346,6.44756977 122.128346,9.00001786 C122.128346,11.552466 124.197534,13.6216545 126.749982,13.6216545 C129.30243,13.6216545 131.371619,11.552466 131.371619,9.00001786 C131.371619,6.44756977 129.30243,4.37838128 126.749982,4.37838128 Z M126.749982,12.0000357 C125.093138,12.0000357 123.749964,10.656862 123.749964,9.00001786 C123.749964,7.34317376 125.093138,6 126.749982,6 C128.406826,6 129.75,7.34317376 129.75,9.00001786 C129.75,10.656862 128.406826,12.0000357 126.749982,12.0000357 Z M132.634196,4.19578796 C132.634196,4.79226184 132.150686,5.27580725 131.554212,5.27580725 C130.957738,5.27580725 130.474193,4.79226184 130.474193,4.19578796 C130.474193,3.59931407 130.957738,3.11580439 131.554212,3.11580439 C132.150686,3.11580439 132.634196,3.59931407 132.634196,4.19578796 Z" transform="translate(-117)"/>
</svg>
