<svg xmlns="http://www.w3.org/2000/svg" width="15" height="14" viewBox="0 0 15 14">
  <path fill="#171616" fill-rule="evenodd" d="M50.084327,13.9295556 L48.0083805,13.9295556 L48.0083805,10.6803889 C48.0083805,9.90572222 47.994769,8.909 46.9291838,8.909 C45.8488205,8.909 45.683927,9.75327778 45.683927,10.6251667 L45.683927,13.9295556 L43.609925,13.9295556 L43.609925,7.24844444 L45.6003136,7.24844444 L45.6003136,8.16194444 L45.6287033,8.16194444 C45.9055999,7.63655556 46.583452,7.08277778 47.5938134,7.08277778 C49.6958162,7.08277778 50.084327,8.46605556 50.084327,10.2654444 L50.084327,13.9295556 L50.084327,13.9295556 Z M41.2683599,6.33572222 C40.601397,6.33572222 40.0639376,5.79633333 40.0639376,5.13133333 C40.0639376,4.46672222 40.601397,3.92733333 41.2683599,3.92733333 C41.9326006,3.92733333 42.4720045,4.46672222 42.4720045,5.13133333 C42.4720045,5.79633333 41.9326006,6.33572222 41.2683599,6.33572222 L41.2683599,6.33572222 Z M40.2288311,13.9295556 L42.307111,13.9295556 L42.307111,7.24844444 L40.2288311,7.24844444 L40.2288311,13.9295556 Z M51.1184113,2 L39.1869688,2 C38.6172307,2 38.1540512,2.45188889 38.1540512,3.00955556 L38.1540512,14.9896667 C38.1540512,15.5473333 38.6172307,16 39.1869688,16 L51.1184113,16 C51.689705,16 52.1540512,15.5473333 52.1540512,14.9896667 L52.1540512,3.00955556 C52.1540512,2.45188889 51.689705,2 51.1184113,2 L51.1184113,2 Z" transform="translate(-38 -2)"/>
</svg>
