<svg xmlns="http://www.w3.org/2000/svg" width="37" height="48" viewBox="0 0 37 48">
  <path d="M18.7584057,0 C13.4267278,0 9.08837775,4.24477216 9.08837775,9.46285826 L9.08837775,12.6832802 L3.90762957,12.6832802 C3.3650851,12.6832802 2.91259699,13.1000868 2.8675688,13.6407396 L0.00396691079,46.8616586 C-0.0214960754,47.154604 0.0764382168,47.4435934 0.27426638,47.6598686 C0.472094542,47.8761388 0.752186889,48 1.04405777,48 L35.9559424,48 C36.2477882,48 36.5278705,47.8761388 36.7257337,47.6598686 C36.9235619,47.4435984 37.0214957,47.1545889 36.9960332,46.8616586 L34.1324313,13.6407396 C34.0873816,13.1000768 33.63492,12.6832802 33.0923706,12.6832802 L28.4306499,12.6832802 L28.4306499,9.46285826 C28.4306499,4.24497349 24.0921494,0 18.7586163,0 L18.7584057,0 Z M11.1783273,9.46285826 C11.1783273,5.40094108 14.5786069,2.09581096 18.7584057,2.09581096 C22.9382044,2.09581096 26.3404898,5.39882715 26.3404898,9.46285826 L26.3404898,12.6832802 L11.1783273,12.6832802 L11.1783273,9.46285826 Z M32.1344837,14.7809031 L34.8159672,45.9039978 L2.18407308,45.9039978 L4.86555653,14.7809031 L9.08852817,14.7809031 L9.08852817,25.1421817 L11.1784777,25.1421817 L11.1784777,14.7809031 L26.3406402,14.7809031 L26.3406402,25.1421817 L28.4305897,25.1421817 L28.4305897,14.7809031 L32.1344837,14.7809031 Z"/>
</svg>
