<svg xmlns="http://www.w3.org/2000/svg" width="18" height="15" viewBox="0 0 18 15">
  <path fill="#171616" fill-rule="evenodd" d="M93.4440102,3.88042612 C92.8191089,4.15696811 92.1475529,4.34387107 91.4426986,4.42793091 C92.1621519,3.99758917 92.7146171,3.31618375 92.9747907,2.50428721 C92.3015573,2.90270357 91.5558257,3.1920777 90.7621347,3.34804714 C90.126486,2.67228291 89.2209104,2.25 88.2187326,2.25 C86.2943301,2.25 84.7341582,3.80678077 84.7341582,5.72695297 C84.7341582,5.99946554 84.7650336,6.26484915 84.8244237,6.51932233 C81.9284703,6.37432531 79.3609643,4.99006558 77.6423773,2.88646192 C77.3424445,3.39999562 77.1706107,3.99727921 77.1706107,4.63448502 C77.1706107,5.8407685 77.7858206,6.90503053 78.7207807,7.52853632 C78.1495543,7.51049693 77.6123094,7.35409356 77.1424687,7.09366924 C77.1422202,7.10817514 77.1422202,7.12274303 77.1422202,7.13737291 C77.1422202,8.82204118 78.3433178,10.2273779 79.937347,10.5467557 C79.6449313,10.6262282 79.3371089,10.668692 79.0192846,10.668692 C78.7947699,10.668692 78.5764676,10.6469332 78.3637564,10.606329 C78.8071325,11.9877372 80.0939606,12.9929837 81.6187221,13.0210657 C80.4261976,13.9535968 78.9237385,14.5094703 77.2912547,14.5094703 C77.0100212,14.5094703 76.7326394,14.4930427 76.460041,14.4609314 C78.0020729,15.4474566 79.8336628,16.0230434 81.8014276,16.0230434 C88.2105944,16.0230434 91.7153591,10.7248559 91.7153591,6.13014264 C91.7153591,5.97938045 91.7120044,5.82942414 91.705295,5.68033571 C92.3860454,5.19011064 92.9768407,4.57770124 93.4440102,3.88042612" transform="translate(-76 -2)"/>
</svg>
